<?xml version="1.0" encoding="utf-8"?>
<!-- Generator: Adobe Illustrator 21.0.0, SVG Export Plug-In . SVG Version: 6.00 Build 0)  -->
<svg version="1.1" id="Layer_1" xmlns="http://www.w3.org/2000/svg" xmlns:xlink="http://www.w3.org/1999/xlink" x="0px" y="0px"
	 viewBox="0 0 35 35" style="enable-background:new 0 0 35 35;" xml:space="preserve">
<style type="text/css">
	.st0{enable-background:new    ;}
	.st1{fill:#FFFFFF;}
</style>
<title>Logo</title>
<desc>Created with Sketch.</desc>
<g id="Page-1">
	<g id="Bank" transform="translate(-29.000000, -20.000000)">
		<g id="Logo" transform="translate(29.000000, 20.000000)">
			<circle id="Oval" cx="17.5" cy="17.5" r="17.5"/>
			<g class="st0">
				<path class="st1" d="M15.5,21.4l2.2-4.5l-1.3-3c-0.4-0.9-0.7-1.5-1.1-1.8c-0.2-0.2-0.6-0.4-1.1-0.4v-0.2h8v0.2
					c-0.8,0.1-1.2,0.5-1.2,1.3c0,0.4,0.2,0.9,0.5,1.7l2.7,6.5l0.6-1.1c1.2-2.4,1.7-4.3,1.7-5.8c0-0.9-0.2-1.5-0.6-1.9
					c-0.2-0.3-0.6-0.5-1.1-0.6v-0.2h5.5v0.2c-0.6,0.2-1,0.5-1.4,1c-0.6,0.7-1.1,1.5-1.6,2.6L22,26.7l-4.1-9.5l-4.7,9.5L7.9,15.1
					c-0.5-1.1-1-2-1.6-2.6c-0.4-0.4-0.9-0.7-1.7-0.9v-0.2h8.1v0.2c-0.6,0.2-0.9,0.6-0.9,1.1c0,0.3,0.1,0.5,0.2,0.8L15.5,21.4z"/>
			</g>
		</g>
	</g>
</g>
</svg>
