<?xml version="1.0" standalone="no"?>
<!DOCTYPE svg PUBLIC "-//W3C//DTD SVG 20010904//EN"
 "http://www.w3.org/TR/2001/REC-SVG-20010904/DTD/svg10.dtd">
<svg version="1.0" xmlns="http://www.w3.org/2000/svg"
 width="2000.000000pt" height="2000.000000pt" viewBox="0 0 2000.000000 2000.000000"
 preserveAspectRatio="xMidYMid meet">
<metadata>
Created by potrace 1.13, written by Peter Selinger 2001-2015
</metadata>
<g transform="translate(0.000000,2000.000000) scale(0.100000,-0.100000)"
fill="#CD1309 " stroke="none">
<path d="M0 10035 l0 -9965 9965 0 9965 0 0 9965 0 9965 -9965 0 -9965 0 0
-9965z m16801 3635 c283 -29 528 -109 698 -227 75 -52 59 -61 149 84 l57 93
133 0 132 0 -2 -497 -3 -498 -154 0 -154 0 -23 92 c-69 282 -293 479 -641 567
-370 93 -664 55 -842 -109 -123 -115 -158 -304 -74 -413 73 -96 206 -134 718
-207 603 -87 891 -165 1078 -293 58 -41 158 -148 190 -207 69 -123 100 -264
100 -455 -2 -438 -223 -706 -678 -820 -175 -44 -278 -55 -530 -55 -257 1 -326
11 -540 81 -130 43 -347 144 -434 203 -35 24 -65 41 -67 38 -3 -2 -29 -65 -58
-138 l-54 -134 -141 -3 -141 -3 0 576 0 575 169 0 168 0 12 -61 c76 -383 326
-628 722 -709 145 -30 338 -42 483 -30 343 28 514 152 549 397 14 101 -1 167
-53 226 -69 78 -161 108 -455 147 -187 24 -620 100 -785 136 -249 56 -469 143
-597 237 -115 85 -197 219 -227 369 -23 113 -21 314 4 412 85 335 432 580 890
629 78 8 304 6 401 -3z m-14241 -219 l0 -168 -128 -5 c-99 -4 -137 -9 -168
-24 -38 -19 -39 -21 -46 -84 -5 -46 -3 -74 7 -95 144 -324 396 -981 590 -1542
16 -46 46 19 316 694 199 499 282 717 281 740 -4 58 -42 161 -75 205 -21 28
-53 54 -92 73 -57 29 -67 30 -212 34 l-153 3 0 169 0 169 755 0 755 0 0 -170
0 -170 -145 0 c-172 0 -237 -11 -265 -47 -40 -51 -32 -79 164 -569 170 -425
346 -881 411 -1066 19 -54 33 -78 44 -78 12 0 82 175 285 711 148 390 275 740
282 777 7 37 13 95 14 130 0 122 -23 135 -257 140 l-173 4 0 169 0 169 2110 0
2110 0 0 -555 0 -556 -157 3 -158 3 -3 50 c-6 105 -33 285 -53 351 -46 152
-116 241 -232 294 -128 59 -163 62 -729 67 l-518 5 0 -426 0 -426 151 0 c172
0 262 16 324 58 76 51 126 191 141 398 l7 84 158 0 159 0 0 -715 0 -716 -157
3 -157 3 -13 124 c-15 156 -27 213 -57 277 -50 107 -126 134 -383 134 l-173 0
0 -481 0 -480 553 3 c485 3 559 6 610 21 264 78 356 240 395 692 l7 80 170 0
170 0 0 -570 0 -570 -1565 0 -1565 0 -3 158 -3 157 148 0 c230 0 319 21 376
90 15 17 31 48 37 70 7 26 10 342 8 962 l-3 923 -23 40 c-48 80 -93 96 -294
102 -298 10 -377 -29 -479 -233 -23 -47 -223 -577 -444 -1177 l-402 -1092
-258 0 -257 0 -284 680 c-156 374 -303 724 -326 778 -22 54 -44 95 -48 90 -4
-4 -146 -356 -316 -781 l-308 -772 -256 2 -255 3 -446 1115 c-246 613 -459
1137 -475 1164 -82 140 -232 226 -394 226 l-50 0 0 170 0 170 710 0 710 0 0
-169z m8400 0 l0 -169 -197 -4 c-186 -3 -201 -5 -248 -28 -37 -18 -55 -36 -70
-65 -20 -39 -20 -63 -23 -1053 l-3 -1013 508 4 c561 4 589 7 704 68 76 41 118
94 160 202 42 111 69 244 77 396 l7 126 170 0 170 0 0 -570 0 -570 -1465 0
-1465 0 -3 156 -2 157 167 5 c93 2 185 10 205 16 51 16 97 57 119 106 18 38
19 89 19 964 0 695 -3 934 -12 964 -15 51 -62 98 -114 116 -24 8 -110 15 -226
18 l-188 5 0 169 0 169 855 0 855 0 0 -169z m3080 0 l0 -169 -202 -4 c-234 -5
-272 -14 -310 -77 l-23 -36 -3 -1023 -2 -1023 492 3 c465 4 497 5 570 26 42
11 94 30 115 41 136 70 219 283 238 609 l8 122 168 0 169 0 0 -575 0 -575
-1407 2 -1408 3 -3 156 -2 156 122 5 c185 8 244 41 267 148 15 71 15 1819 0
1890 -6 28 -23 65 -37 82 -46 55 -77 62 -294 66 l-198 4 0 169 0 169 870 0
870 0 0 -169z m-1056 -4071 c124 -24 240 -62 331 -107 74 -37 209 -134 224
-162 5 -9 11 -14 13 -11 3 3 35 74 73 158 l69 152 113 0 113 0 0 -485 0 -485
-141 0 -141 0 -11 33 c-28 77 -110 229 -158 291 -97 126 -251 224 -415 266
-104 27 -288 41 -388 29 -503 -56 -791 -572 -727 -1299 39 -444 186 -717 456
-851 205 -101 440 -114 670 -38 112 38 180 76 253 144 122 114 157 219 149
451 -8 226 -9 227 -274 232 l-183 4 0 154 0 154 670 0 670 0 0 -154 0 -154
-133 -4 c-158 -4 -178 -12 -196 -82 -7 -31 -11 -210 -11 -565 l0 -521 -129 0
-129 0 -71 114 -71 114 -68 -45 c-151 -103 -374 -193 -579 -234 -135 -27 -394
-37 -515 -20 -215 31 -418 113 -578 234 -103 78 -261 240 -351 360 -158 211
-256 450 -290 712 -15 114 -7 401 15 518 78 422 345 790 705 971 136 69 326
123 511 146 120 14 409 4 524 -20z m3576 5 c640 -107 1085 -462 1253 -1001 50
-160 62 -244 61 -454 0 -217 -16 -319 -75 -487 -183 -519 -650 -862 -1289
-948 -124 -17 -420 -19 -540 -5 -486 61 -897 279 -1145 609 -70 92 -171 285
-204 389 -54 168 -66 257 -65 467 0 273 33 423 139 630 71 140 132 223 255
345 257 257 624 421 1051 469 117 14 444 5 559 -14z m-11690 -590 l0 -555
-159 0 -158 0 -6 133 c-7 153 -31 278 -76 394 -37 94 -76 134 -173 177 -123
55 -190 60 -713 61 l-480 0 -3 -424 -2 -423 207 5 c134 3 221 9 246 17 60 21
113 74 136 135 22 60 41 192 41 293 l0 63 143 -3 142 -3 0 -710 0 -710 -141
-3 -141 -3 -7 143 c-11 232 -38 324 -115 390 -62 53 -95 60 -313 65 l-198 5 0
-363 c1 -380 9 -542 30 -576 29 -46 42 -48 313 -51 l257 -3 0 -175 0 -174
-867 2 -868 3 0 170 0 170 170 5 c188 6 222 15 268 69 14 17 30 48 34 69 4 20
8 456 8 967 l0 930 -25 50 c-14 29 -38 57 -56 67 -41 24 -146 38 -286 38
l-118 0 0 155 0 155 1455 0 1455 0 0 -555z m2121 -603 c290 -716 480 -1173
502 -1207 78 -116 131 -135 382 -135 217 0 265 10 318 69 65 72 62 22 62 1056
0 920 0 941 -20 980 -35 69 -67 78 -297 83 l-198 5 0 154 0 154 1138 -4 c988
-3 1149 -6 1227 -20 351 -62 543 -193 623 -421 33 -95 42 -288 18 -388 -23
-97 -77 -197 -147 -272 -131 -140 -299 -221 -562 -271 -67 -13 -116 -24 -109
-24 7 -1 61 -19 120 -41 344 -130 441 -285 461 -739 7 -153 11 -182 31 -224
30 -64 79 -97 143 -97 117 0 146 51 161 288 l9 162 126 0 126 0 -7 -172 c-7
-197 -26 -289 -83 -404 -68 -138 -165 -217 -315 -255 -74 -19 -103 -21 -235
-16 -345 12 -514 114 -590 357 -14 43 -19 112 -25 320 -8 290 -21 382 -69 485
-53 114 -110 159 -247 196 -69 19 -113 23 -352 27 l-273 4 3 -448 c3 -432 4
-450 23 -484 32 -53 61 -59 303 -59 l212 -1 0 -175 0 -175 -1607 2 -1608 3 0
170 0 170 235 5 c302 6 308 9 298 153 -3 51 -18 92 -83 235 l-78 172 -542 0
-543 0 -43 -102 c-23 -57 -66 -158 -96 -225 -58 -134 -65 -179 -32 -209 19
-17 43 -19 268 -24 l246 -5 0 -170 0 -170 -740 0 -740 0 0 170 0 170 130 5
c152 7 198 23 258 89 49 54 24 -1 588 1309 l474 1102 344 -2 345 -3 467 -1153z"/>
<path d="M16117 9059 c-370 -40 -654 -274 -778 -643 -126 -370 -97 -831 72
-1144 183 -341 550 -525 941 -472 356 48 626 254 749 573 66 171 91 326 90
562 0 560 -196 911 -595 1066 -129 50 -330 74 -479 58z"/>
<path d="M8910 8600 l0 -440 28 0 c15 0 187 7 382 16 386 17 499 33 592 79 66
33 131 95 158 152 31 67 44 177 32 270 -30 222 -157 323 -443 353 -56 5 -247
10 -425 10 l-324 0 0 -440z"/>
<path d="M6082 8810 c-6 -14 -107 -254 -225 -535 l-215 -510 219 -3 c120 -1
317 -1 437 0 l218 3 -208 525 c-114 289 -209 530 -211 535 -3 6 -9 -1 -15 -15z"/>
</g>
</svg>
