<?xml version="1.0" encoding="UTF-8"?>
<svg width="138px" height="18px" viewBox="0 0 138 18" version="1.1" xmlns="http://www.w3.org/2000/svg" xmlns:xlink="http://www.w3.org/1999/xlink">
    <!-- Generator: Sketch 41 (35326) - http://www.bohemiancoding.com/sketch -->
    <title>Bank_of_America_logo</title>
    <desc>Created with Sketch.</desc>
    <defs></defs>
    <g id="Page-1" stroke="none" stroke-width="1" fill="none" fill-rule="#D4001A">
        <g id="Choose-Bank" transform="translate(-550.000000, -345.000000)" fill="#FFFFFF">
            <g id="Bank_of_America_logo" transform="translate(550.000000, 345.000000)">
                <g id="Layer_1">
                    <g id="Group">
                        <path d="M37.4956098,9.41538462 C35.1395122,9.41538462 33.9278049,11.2153846 33.9278049,13.6384615 C33.9278049,16.1307692 35.0721951,17.9307692 37.4956098,17.9307692 C39.9190244,17.9307692 41.0634146,16.2 41.0634146,13.6384615 C40.9960976,11.2153846 39.8517073,9.41538462 37.4956098,9.41538462 M37.4956098,16.2692308 C36.8897561,16.2692308 36.5531707,15.7153846 36.5531707,13.6384615 C36.5531707,11.7692308 36.755122,11.0769231 37.4956098,11.0769231 C38.2360976,11.0769231 38.4380488,11.7692308 38.4380488,13.6384615 C38.3707317,15.6461538 38.1014634,16.2692308 37.4956098,16.2692308" id="Shape"></path>
                        <path d="M42.6790244,8.72307692 L42.6790244,9.62307692 L41.6692683,9.62307692 L41.6692683,11.4923077 L42.6790244,11.4923077 L42.6790244,17.7923077 L45.2370732,17.7923077 L45.2370732,11.4923077 L46.6507317,11.4923077 L46.6507317,9.62307692 L45.2370732,9.62307692 L45.2370732,8.79230769 C45.2370732,8.30769231 45.5063415,8.03076923 46.1795122,8.03076923 C46.3141463,8.03076923 46.5160976,8.03076923 46.6507317,8.1 L46.6507317,6.09230769 C46.2468293,6.02307692 45.8429268,6.02307692 45.3717073,6.02307692 C43.6214634,5.95384615 42.6790244,6.71538462 42.6790244,8.72307692" id="Shape"></path>
                        <path d="M15.4829268,11.9076923 C15.4829268,10.1076923 13.8673171,9.41538462 12.3863415,9.41538462 C10.9726829,9.41538462 9.49170732,10.0384615 9.22243902,11.6307692 L11.4439024,12.1153846 C11.4439024,11.6307692 11.6458537,11.0769231 12.2517073,11.0769231 C12.7229268,11.0769231 12.924878,11.4230769 12.924878,11.9076923 L12.924878,12.6 C11.2419512,12.8076923 8.95317073,13.4307692 8.88585366,15.5076923 C8.81853659,17.0307692 9.82829268,17.8615385 11.1073171,17.8615385 C11.8478049,17.8615385 12.5882927,17.4461538 13.0595122,16.9615385 C13.0595122,17.1 13.0595122,17.4461538 13.1268293,17.7230769 L15.7521951,17.7230769 C15.684878,17.5846154 15.4829268,17.3076923 15.4829268,16.4076923 L15.4829268,11.9076923 L15.4829268,11.9076923 Z M12.924878,15.6461538 C12.7229268,15.9230769 12.3863415,16.1307692 12.1170732,16.1307692 C11.6458537,16.1307692 11.3765854,15.8538462 11.3765854,15.3 C11.3765854,14.2615385 12.0497561,13.9153846 12.924878,13.8461538 L12.924878,15.6461538 L12.924878,15.6461538 Z" id="Shape"></path>
                        <path d="M21.7434146,9.41538462 C20.7336585,9.41538462 20.0604878,9.9 19.5219512,10.4538462 L19.5219512,10.4538462 L19.5219512,9.62307692 L17.0312195,9.62307692 L17.0312195,17.7230769 L19.5219512,17.7230769 L19.5219512,11.9076923 C19.7239024,11.6307692 20.0604878,11.4230769 20.3297561,11.4230769 C20.7336585,11.4230769 20.9356098,11.7 20.9356098,12.1153846 L20.9356098,17.7230769 L23.4936585,17.7230769 L23.4936585,11.2846154 C23.4936585,10.1769231 22.8878049,9.41538462 21.7434146,9.41538462" id="Shape"></path>
                        <polygon id="Shape" points="32.0429268 9.62307692 29.5521951 9.62307692 27.6673171 12.0461538 27.6 12.0461538 27.6 6.23076923 25.1092683 6.23076923 25.1092683 17.7230769 27.6 17.7230769 27.6 14.8153846 28.1385366 14.1923077 28.2058537 14.1923077 29.417561 17.7230769 32.1102439 17.7230769 29.9560976 12.1153846"></polygon>
                        <path d="M6.19317073,11.7692308 L6.19317073,11.7 C7.00097561,11.3538462 8.01073171,10.5923077 8.01073171,9.06923077 C8.01073171,7.40769231 6.66439024,6.23076923 4.71219512,6.23076923 L0.269268293,6.23076923 L0.269268293,17.7230769 L4.57756098,17.7230769 C6.73170732,17.7230769 8.21268293,16.6153846 8.21268293,14.6076923 C8.28,13.1538462 7.40487805,12.1846154 6.19317073,11.7692308 L6.19317073,11.7692308 Z M3.02926829,8.23846154 L4.03902439,8.23846154 C4.71219512,8.23846154 5.38536585,8.44615385 5.38536585,9.48461538 C5.38536585,10.1769231 4.98146341,10.7307692 3.97170732,10.7307692 L3.02926829,10.7307692 L3.02926829,8.23846154 Z M4.03902439,15.5769231 L3.02926829,15.5769231 L3.02926829,12.6692308 L4.03902439,12.6692308 C4.98146341,12.6692308 5.45268293,13.2230769 5.45268293,14.1230769 C5.52,15.3 4.64487805,15.5769231 4.03902439,15.5769231 L4.03902439,15.5769231 Z" id="Shape"></path>
                        <path d="M100.840976,16.4076923 L100.840976,11.9076923 C100.840976,10.1076923 99.2253659,9.41538462 97.7443902,9.41538462 C96.2634146,9.41538462 94.8497561,10.0384615 94.5804878,11.6307692 L96.8019512,12.1153846 C96.8019512,11.6307692 97.0039024,11.0769231 97.6097561,11.0769231 C98.0809756,11.0769231 98.2829268,11.4230769 98.2829268,11.9076923 L98.2829268,12.6 C96.6,12.8076923 94.2439024,13.4307692 94.2439024,15.5076923 C94.1765854,17.0307692 95.1863415,17.8615385 96.4653659,17.8615385 C97.2058537,17.8615385 97.9463415,17.4461538 98.417561,16.9615385 C98.417561,17.1 98.417561,17.4461538 98.484878,17.7230769 L101.110244,17.7230769 C100.97561,17.6538462 100.840976,17.3769231 100.840976,16.4076923 L100.840976,16.4076923 Z M98.2829268,15.6461538 C98.0809756,15.9230769 97.7443902,16.1307692 97.475122,16.1307692 C97.0039024,16.1307692 96.7346341,15.8538462 96.7346341,15.3 C96.7346341,14.2615385 97.4078049,13.9153846 98.2829268,13.8461538 L98.2829268,15.6461538 L98.2829268,15.6461538 Z" id="Shape"></path>
                        <path d="M73.0390244,9.41538462 C70.6829268,9.41538462 69.5385366,11.3538462 69.5385366,13.6384615 C69.5385366,15.8538462 70.6156098,17.9307692 73.1063415,17.9307692 C75.395122,17.9307692 76.1356098,16.0615385 76.2702439,15.7153846 L74.52,15.0923077 C74.3853659,15.7153846 73.8468293,16.2 73.2409756,16.2 C72.2312195,16.2 72.0292683,15.0230769 72.0292683,14.2615385 L76.2702439,14.2615385 L76.2702439,13.7076923 C76.337561,11.5615385 75.462439,9.41538462 73.0390244,9.41538462 M73.9814634,12.6692308 L72.0965854,12.6692308 C72.0292683,11.9076923 72.2985366,11.0076923 73.0390244,11.0076923 C73.9141463,11.0769231 73.9814634,11.9076923 73.9814634,12.6692308" id="Shape"></path>
                        <rect id="Rectangle-path" x="83.2039024" y="9.62307692" width="2.55804878" height="8.1"></rect>
                        <rect id="Rectangle-path" x="83.2039024" y="6.23076923" width="2.55804878" height="2.35384615"></rect>
                        <path d="M90.5414634,11.0769231 C90.9453659,11.0769231 91.1473171,11.2846154 91.2819512,11.6307692 C91.4165854,11.9076923 91.4165854,12.3230769 91.4165854,12.6692308 L93.5707317,12.6692308 C93.5707317,11.8384615 93.1668293,9.48461538 90.4741463,9.48461538 C88.0507317,9.48461538 86.8390244,11.7 86.8390244,13.9153846 C86.8390244,15.9230769 88.0507317,18 90.3395122,18 C92.2243902,18 93.3014634,16.9615385 93.5034146,15.0230769 L91.5512195,14.7461538 C91.5512195,15.3692308 91.4839024,16.2692308 90.5414634,16.2692308 C89.8682927,16.2692308 89.5990244,15.6461538 89.5990244,13.8461538 C89.5990244,12.1153846 89.6663415,11.0769231 90.5414634,11.0769231" id="Shape"></path>
                        <path d="M51.0263415,6.23076923 L48.4009756,17.7230769 L50.8243902,17.7230769 L51.2956098,15.3692308 L53.9209756,15.3692308 L54.3921951,17.7230769 L57.1521951,17.7230769 L54.7287805,6.23076923 L51.0263415,6.23076923 Z M51.7668293,13.3615385 L52.7092683,8.65384615 L52.7765854,8.65384615 L53.5843902,13.3615385 L51.7668293,13.3615385 Z" id="Shape"></path>
                        <path d="M79.9053659,10.7307692 L79.9053659,10.7307692 L79.8380488,9.62307692 L77.4146341,9.62307692 L77.4146341,17.7230769 L79.9726829,17.7230769 L79.9726829,12.4615385 C80.2419512,12.1153846 80.7131707,11.8384615 81.3863415,11.8384615 C81.857561,11.8384615 82.1268293,11.9769231 82.3960976,12.0461538 L82.3960976,9.41538462 C81.3863415,9.41538462 80.4439024,9.83076923 79.9053659,10.7307692" id="Shape"></path>
                        <path d="M66.6439024,9.41538462 C65.5668293,9.41538462 64.8263415,10.0384615 64.355122,10.5230769 L64.355122,10.5230769 C64.0858537,9.9 63.6146341,9.41538462 62.8068293,9.41538462 C61.8643902,9.41538462 61.0565854,9.9 60.5180488,10.4538462 L60.5180488,10.4538462 L60.5180488,9.62307692 L58.0273171,9.62307692 L58.0273171,17.7230769 L60.5180488,17.7230769 L60.5180488,11.9076923 C60.72,11.6307692 61.1239024,11.4230769 61.3931707,11.4230769 C61.8643902,11.4230769 61.9990244,11.7 61.9990244,12.1846154 L61.9990244,17.7230769 L64.4897561,17.7230769 L64.4897561,11.9076923 C64.6243902,11.7 65.0282927,11.4230769 65.364878,11.4230769 C65.8360976,11.4230769 65.9707317,11.7 65.9707317,12.1846154 L65.9707317,17.7230769 L68.4614634,17.7230769 L68.4614634,11.2153846 C68.3941463,10.1076923 67.7209756,9.41538462 66.6439024,9.41538462" id="Shape"></path>
                        <path d="M116.525854,4.36153846 C117.53561,4.77692308 118.545366,5.19230769 119.555122,5.67692308 C116.39122,6.99230769 113.361951,8.51538462 110.467317,10.3153846 C109.457561,9.76153846 108.515122,9.27692308 107.505366,8.79230769 C110.332683,7.13076923 113.361951,5.60769231 116.525854,4.36153846" id="Shape"></path>
                        <path d="M112.756098,3.04615385 C109.524878,4.08461538 106.360976,5.46923077 103.399024,7.2 C104.341463,7.54615385 105.283902,7.96153846 106.226341,8.30769231 C109.120976,6.57692308 112.150244,5.12307692 115.314146,3.94615385 C114.439024,3.6 113.63122,3.32307692 112.756098,3.04615385" id="Shape"></path>
                        <path d="M123.324878,4.22307692 C120.766829,2.97692308 118.074146,1.86923077 115.381463,1.03846154 C114.439024,1.31538462 113.496585,1.66153846 112.486829,1.93846154 C115.314146,2.76923077 118.074146,3.87692308 120.699512,5.19230769 C121.574634,4.91538462 122.449756,4.56923077 123.324878,4.22307692" id="Shape"></path>
                        <path d="M127.498537,2.97692308 C124.873171,1.8 122.180488,0.830769231 119.420488,0 C118.545366,0.207692308 117.670244,0.415384615 116.795122,0.623076923 C119.555122,1.45384615 122.247805,2.49230769 124.805854,3.73846154 C125.680976,3.46153846 126.556098,3.25384615 127.498537,2.97692308" id="Shape"></path>
                        <path d="M134.230244,5.26153846 C127.633171,7.54615385 121.507317,10.8 115.92,14.8846154 C117.333659,15.7846154 118.68,16.6846154 120.026341,17.6538462 C125.277073,13.3615385 131.133659,9.76153846 137.394146,7.06153846 C136.317073,6.50769231 135.24,5.88461538 134.230244,5.26153846" id="Shape"></path>
                        <path d="M129.652683,3.11538462 C122.786341,4.98461538 116.39122,7.96153846 110.601951,11.9076923 C111.880976,12.6 113.16,13.2923077 114.439024,14.0538462 C120.093659,10.0384615 126.421463,6.85384615 133.153171,4.77692308 C132.00878,4.15384615 130.86439,3.6 129.652683,3.11538462" id="Shape"></path>
                        <path d="M122.113171,16.9615385 C122.113171,16.5461538 122.449756,16.2 122.853659,16.2 C123.257561,16.2 123.594146,16.5461538 123.594146,16.9615385 C123.594146,17.3769231 123.257561,17.7230769 122.853659,17.7230769 C122.449756,17.7230769 122.113171,17.3769231 122.113171,16.9615385 M122.247805,16.9615385 C122.247805,17.3076923 122.517073,17.5846154 122.853659,17.5846154 C123.190244,17.5846154 123.459512,17.3076923 123.459512,16.9615385 C123.459512,16.6153846 123.190244,16.3384615 122.853659,16.3384615 C122.517073,16.4076923 122.247805,16.6153846 122.247805,16.9615385" id="Shape"></path>
                        <path d="M123.190244,17.3769231 L123.05561,17.3769231 L122.786341,17.0307692 L122.651707,17.0307692 L122.651707,17.3769231 L122.517073,17.3769231 L122.517073,16.5461538 L122.853659,16.5461538 C122.920976,16.5461538 122.988293,16.5461538 123.05561,16.6153846 C123.122927,16.6846154 123.122927,16.7538462 123.122927,16.8230769 C123.122927,16.9615385 122.988293,17.0307692 122.853659,17.0307692 L123.190244,17.3769231 Z M122.853659,16.8923077 C122.988293,16.8923077 123.122927,16.8923077 123.122927,16.7538462 C123.122927,16.6153846 123.05561,16.6153846 122.920976,16.6153846 L122.719024,16.6153846 L122.719024,16.8923077 L122.853659,16.8923077 L122.853659,16.8923077 Z" id="Shape"></path>
                    </g>
                </g>
            </g>
        </g>
    </g>
</svg>