<?xml version="1.0" encoding="UTF-8"?>
<svg width="120px" height="17px" viewBox="0 0 120 17" version="1.1" xmlns="http://www.w3.org/2000/svg" xmlns:xlink="http://www.w3.org/1999/xlink">
    <!-- Generator: Sketch 41 (35326) - http://www.bohemiancoding.com/sketch -->
    <title>Capital One SVG</title>
    <desc>Created with Sketch.</desc>
    <defs>
        <polygon id="path-1" points="0.37741344 11.6869565 10.0137069 11.6869565 10.0137069 0.649502609 0.37741344 0.649502609 0.37741344 11.6869565"></polygon>
        <polygon id="path-3" points="3.65076923 2.94657391 3.65076923 0.103721739 0.599307692 0.103721739 0.599307692 2.94657391 3.65076923 2.94657391"></polygon>
    </defs>
    <g id="Page-1" stroke="none" stroke-width="1" fill="none" fill-rule="evenodd">
        <g id="Bank" transform="translate(-346.000000, -345.000000)">
            <g id="Group-4" transform="translate(316.000000, 278.000000)">
                <g id="Group-2">
                    <g id="Group">
                        <g id="Capital-One-SVG" transform="translate(30.000000, 67.200000)">
                            <g id="Group-3" transform="translate(95.384615, 4.701882)" fill="#FEFEFE">
                                <path d="M0.586230769,2.26588174 C0.938538462,2.2103687 1.23161538,2.2103687 1.467,2.2103687 C1.81930769,2.2103687 2.11161538,2.26588174 2.17161538,2.60042087 C2.17161538,2.76769043 1.81930769,4.21687304 1.70161538,4.55141217 L0.997,7.61777739 C0.644692308,8.89969043 0.350846154,10.237847 0.0577692308,11.2969774 L1.93623077,11.2969774 L3.05161538,6.39137739 C6.27930769,3.10296 7.57161538,2.04309913 8.33546154,2.04309913 C8.62853846,2.04309913 8.86315385,2.26588174 8.92238462,2.65666435 C8.92238462,3.21398609 8.57007692,4.49589913 8.45315385,4.8859513 L7.337,8.45339478 C7.10238462,9.29047304 6.92623077,10.0143339 6.92623077,10.5723861 C6.98469231,11.3524904 7.45546154,11.6870296 8.21776923,11.6870296 C9.56776923,11.6870296 10.6246923,10.29336 11.4462308,8.95593391 L11.0946923,8.67690783 C10.7423846,9.23422957 10.0377692,10.237847 9.39161538,10.237847 C9.15776923,10.237847 8.98084615,10.12536 8.98084615,9.7915513 C8.98084615,9.34598609 9.15776923,8.73242087 9.27469231,8.28685565 L10.507,4.10584696 C10.8008462,2.93496 10.977,2.15485565 10.977,1.76480348 C10.9185385,0.983968696 10.4485385,0.593916522 9.68546154,0.593916522 C8.45315385,0.593916522 6.80930769,1.48577739 3.287,5.38776 L3.22776923,5.38776 L3.69776923,3.49228174 C3.93238462,2.4331513 4.167,1.3747513 4.40161538,0.593916522 C3.16930769,1.04021217 1.64315385,1.48577739 0.586230769,1.65304696 L0.586230769,2.26588174 Z" id="Fill-1"></path>
                            </g>
                            <g id="Group-6" transform="translate(106.153846, 4.701882)">
                                <mask id="mask-2" fill="white">
                                    <use xlink:href="#path-1"></use>
                                </mask>
                                <g id="Clip-5"></g>
                                <path d="M8.60230769,8.11965913 L9.01307692,8.34244174 C8.01538462,10.1816765 6.07846154,11.6871026 3.84692308,11.6871026 C1.96923077,11.6871026 0.443076923,10.5162157 0.383076923,8.2869287 C0.207692308,4.32870261 4.14076923,0.649502609 7.31153846,0.649502609 C8.66153846,0.649502609 9.95307692,1.20755478 10.0115385,2.60049391 C10.1284615,5.77861565 5.49076923,6.72525913 2.43846154,6.78150261 C2.32076923,7.11604174 2.32076923,7.45058087 2.32076923,7.95238957 C2.37923077,9.29054609 3.20153846,10.3489461 4.90384615,10.3489461 C6.37230769,10.3489461 7.83923077,9.23357217 8.60230769,8.11965913 M8.19153846,2.3777113 C8.19153846,1.65312 7.78076923,1.1513113 6.95846154,1.1513113 C5.02153846,1.1513113 2.96692308,4.77499826 2.61461538,6.27896348 C5.78538462,6.27896348 8.25,4.44045913 8.19153846,2.3777113" id="Fill-4" fill="#FEFEFE" mask="url(#mask-2)"></path>
                            </g>
                            <path d="M28.8709231,5.74187478 C28.8709231,6.18744 28.8116923,6.57822261 28.6355385,7.30281391 L27.814,11.9293878 C27.6963077,12.31944 27.8732308,12.6539791 28.284,12.8767617 L28.2255385,13.0440313 L23.294,13.0440313 L23.294,11.8738748 C22.5301538,12.31944 21.6501538,12.6539791 20.8870769,12.8767617 C20.124,13.0440313 19.4786154,13.1550574 18.5386154,13.1550574 C16.8947692,13.1550574 16.0147692,12.9885183 15.3686154,12.4311965 C14.7224615,11.8738748 14.4293846,11.5393357 14.4293846,10.7585009 C14.4878462,10.3684487 14.7224615,9.81039652 15.0163077,9.42107478 C15.3686154,9.03029217 15.8386154,8.75199652 16.3670769,8.52848348 C16.8947692,8.3064313 17.4816923,8.1384313 18.3624615,7.97189217 C19.2432308,7.85940522 20.4170769,7.69286609 22.0609231,7.58184 C22.9416923,7.52559652 23.4701538,7.30281391 23.7055385,7.24730087 C24.0570769,7.07930087 24.1747692,6.96754435 24.2332308,6.6892487 C24.2916923,6.24368348 24.1747692,5.96465739 23.4701538,5.79738783 C21.7086154,5.4628487 18.3624615,6.02017043 16.6601538,6.46646609 L17.6001538,4.01366609 C19.8886154,3.73464 22.0024615,3.51185739 24.2332308,3.51185739 C27.814,3.51185739 28.9293846,4.51474435 28.8709231,5.74187478 M23.7632308,8.80750957 C23.5870769,8.86302261 23.294,8.91926609 22.9416923,8.97477913 C22.6486154,9.08580522 22.0024615,9.19756174 21.1216923,9.30931826 C20.5347692,9.42107478 20.0647692,9.53210087 19.8301538,9.70010087 C19.5955385,9.86664 19.4786154,10.0339096 19.4193846,10.3129357 C19.4193846,10.5349878 19.4786154,10.7585009 19.7124615,10.9265009 C19.9470769,11.09304 20.3586154,11.148553 20.8870769,11.148553 C21.2978462,11.148553 21.7086154,11.09304 22.1201538,10.9812835 C22.5301538,10.8140139 22.824,10.6467443 23.1178462,10.4802052 C23.294,10.3129357 23.4701538,10.0894226 23.5286154,9.86664 C23.5870769,9.70010087 23.7055385,9.36556174 23.7632308,8.80750957" id="Fill-7" fill="#FEFEFE"></path>
                            <path d="M45.1907692,1.61681739 C45.3669231,0.891495652 46.6,0.27866087 48.0084615,0.27866087 C49.4176923,0.27866087 50.4746154,0.891495652 50.2984615,1.61681739 C50.1807692,2.39692174 48.8892308,3.01048696 47.48,3.01048696 C46.0715385,3.01048696 45.0738462,2.39692174 45.1907692,1.61681739 L45.1907692,1.61681739 Z M43.2538462,13.0444696 L44.9561538,3.7905913 L49.7107692,3.7905913 L47.95,13.0444696 L43.2538462,13.0444696 Z" id="Fill-9" fill="#FEFEFE"></path>
                            <path d="M71.6079231,5.74187478 C71.6079231,6.18744 71.491,6.63373565 71.3733077,7.30281391 L70.5517692,11.9293878 C70.4340769,12.374953 70.6102308,12.6539791 71.021,12.9330052 L70.9625385,13.0995443 L66.031,13.0995443 L65.9725385,11.8738748 C65.2686923,12.31944 64.3871538,12.6539791 63.6240769,12.8767617 C62.8025385,13.0440313 62.2156154,13.1550574 61.2171538,13.1550574 C59.6325385,13.1550574 58.7517692,12.9885183 58.1056154,12.4867096 C57.4602308,11.9293878 57.1671538,11.5393357 57.1671538,10.8140139 C57.1671538,10.3684487 57.4602308,9.81039652 57.7533077,9.42107478 C58.1056154,9.03029217 58.5756154,8.75199652 59.1040769,8.52848348 C59.5733077,8.3064313 60.2194615,8.1384313 61.1002308,8.02740522 C61.981,7.85940522 63.1548462,7.74837913 64.7979231,7.58184 C65.6786923,7.52559652 66.2071538,7.35832696 66.4417692,7.24730087 C66.7940769,7.13554435 66.9125385,6.96754435 66.971,6.74476174 C67.0294615,6.24368348 66.9125385,5.96465739 66.2071538,5.8536313 C64.4463846,5.51836174 61.1002308,6.07641391 59.3971538,6.46646609 L60.3363846,4.06917913 C62.5679231,3.73464 64.7394615,3.51185739 66.971,3.51185739 C70.4933077,3.51185739 71.6671538,4.51474435 71.6079231,5.74187478 M66.5002308,8.80750957 C66.3248462,8.86302261 66.031,8.91926609 65.6786923,9.03029217 C65.3856154,9.08580522 64.7394615,9.19756174 63.8586923,9.30931826 C63.2133077,9.42107478 62.8025385,9.53210087 62.5679231,9.70010087 C62.3325385,9.86664 62.2156154,10.0894226 62.1571538,10.3129357 C62.0979231,10.5349878 62.2156154,10.7585009 62.4502308,10.9265009 C62.6848462,11.09304 63.0963846,11.148553 63.6240769,11.148553 C64.0348462,11.148553 64.4463846,11.09304 64.8571538,10.9812835 C65.2686923,10.8702574 65.5617692,10.7029878 65.8548462,10.4802052 C66.031,10.3129357 66.1486923,10.0894226 66.2663846,9.86664 C66.3248462,9.70010087 66.3833077,9.36556174 66.5002308,8.80750957" id="Fill-11" fill="#FEFEFE"></path>
                            <path d="M13.7837692,9.75502957 C12.2576154,10.0340557 11.3768462,10.1458122 9.84992308,10.1458122 C7.61992308,10.1458122 5.79992308,9.0859513 5.91684615,7.07944696 C5.97607692,5.79753391 7.61992308,3.01019478 11.7291538,3.01019478 C13.0206923,3.01019478 14.0183846,3.23297739 15.4276154,3.9575687 L16.0145385,0.724664348 C14.1360769,0.0563165217 12.903,7.30434783e-05 11.3176154,7.30434783e-05 C5.91684615,0.0563165217 0.692230769,2.39736 0.0468461538,7.19120348 C-0.599307692,12.04056 5.62376923,13.2676904 8.383,13.2676904 C9.96838462,13.2676904 11.6114615,13.211447 13.1968462,13.0441774 L13.7837692,9.75502957 Z" id="Fill-13" fill="#FEFEFE"></path>
                            <polygon id="Fill-15" fill="#FEFEFE" points="52.2937692 3.73500522 52.6460769 1.83952696 57.5776154 0.835909565 57.0491538 3.73500522 59.5145385 3.73500522 59.0453077 5.63048348 56.6968462 5.57424 55.2291538 13.0443965 50.4745385 13.0443965 51.883 5.63048348 50.0637692 5.63048348 50.4745385 3.73500522"></polygon>
                            <polygon id="Fill-17" fill="#FEFEFE" points="76.4223077 13.0441043 71.6076923 13.0441043 73.9569231 0.278295652 78.7115385 0.222782609"></polygon>
                            <path d="M28.3423846,16.2768626 L30.6316154,3.84632348 L34.8000769,3.84632348 L34.507,5.40726261 C34.8585385,4.96169739 35.4462308,4.57091478 36.2093077,4.23637565 C37.0308462,3.95808 37.9108462,3.67978435 38.9093077,3.67978435 C39.9662308,3.67978435 40.6700769,3.73529739 41.4923846,4.18086261 C42.3139231,4.57091478 42.8431538,5.12823652 43.1362308,5.9090713 C43.4877692,6.68917565 43.547,7.52552348 43.3716154,8.41665391 C43.0777692,9.97832348 42.3139231,11.2047235 41.0223846,12.0403409 C39.7308462,12.9329322 38.6154615,13.2119583 36.9723846,13.2119583 C36.3846923,13.2119583 35.9154615,13.1557148 35.5046923,13.0439583 C35.0931538,12.9329322 34.8000769,12.8219061 34.5654615,12.6539061 C34.3300769,12.54288 34.0954615,12.319367 33.8023846,11.9848278 L33.0393077,16.2768626 L28.3423846,16.2768626 Z M36.9723846,5.96458435 C36.3262308,5.96458435 35.7977692,6.13185391 35.2693077,6.52190609 C34.8000769,6.85644522 34.507,7.41449739 34.3300769,8.08284522 C34.2131538,8.91919304 34.2716154,9.47651478 34.6239231,9.86729739 C34.9762308,10.2018365 35.4462308,10.3683757 36.0916154,10.3683757 C36.5023846,10.3683757 36.9723846,10.3128626 37.2654615,10.145593 C37.677,9.92281043 37.9700769,9.75481043 38.2046923,9.3654887 C38.4985385,9.03021913 38.6746923,8.64016696 38.7331538,8.13835826 C38.8508462,7.41449739 38.7916154,6.85644522 38.3808462,6.52190609 C38.0877692,6.13185391 37.5585385,5.96458435 36.9723846,5.96458435 L36.9723846,5.96458435 Z" id="Fill-19" fill="#FEFEFE"></path>
                            <path d="M79.4744615,10.0339096 C79.2983077,5.07279652 83.3490769,0.0561704348 89.2190769,0.0561704348 C93.1529231,0.0561704348 95.6767692,2.56448348 95.8529231,6.41095304 C96.0290769,11.5948487 92.2721538,16.3886922 86.1083077,16.3886922 C82.1752308,16.3886922 79.5921538,13.8803791 79.4744615,10.0339096 M81.9990769,10.2011791 C82.1167692,13.0995443 84.0536923,15.4413183 86.5190769,15.4413183 C91.3913846,15.4413183 93.4467692,9.75488348 93.2706154,5.96465739 C93.1529231,3.06629217 91.216,0.724518261 88.6906154,0.724518261 C84.5229231,0.724518261 81.8821538,6.35470957 81.9990769,10.2011791" id="Fill-21" fill="#FEFEFE"></path>
                            <g id="Group-25" transform="translate(116.153846, 3.241012)">
                                <mask id="mask-4" fill="white">
                                    <use xlink:href="#path-3"></use>
                                </mask>
                                <g id="Clip-24"></g>
                                <path d="M2.12469231,1.38563478 C2.36007692,1.38563478 2.53546154,1.38563478 2.53546154,1.10733913 C2.53546154,0.940069565 2.36007692,0.883826087 2.18315385,0.883826087 L1.77315385,0.883826087 L1.77315385,1.38563478 L2.12469231,1.38563478 Z M1.77315385,2.3330087 L1.53776923,2.3330087 L1.53776923,0.661043478 L2.18315385,0.661043478 C2.59392308,0.661043478 2.82930769,0.828313043 2.82930769,1.16285217 C2.82930769,1.44187826 2.59392308,1.55290435 2.36007692,1.60841739 L2.82930769,2.3330087 L2.53546154,2.3330087 L2.12469231,1.60841739 L1.77315385,1.60841739 L1.77315385,2.3330087 Z M2.12469231,2.66827826 C2.77084615,2.66827826 3.35853846,2.16646957 3.35853846,1.4973913 C3.35853846,0.828313043 2.77084615,0.326504348 2.12469231,0.326504348 C1.42007692,0.326504348 0.891615385,0.828313043 0.891615385,1.4973913 C0.891615385,2.16646957 1.42007692,2.66827826 2.12469231,2.66827826 L2.12469231,2.66827826 Z M0.599307692,1.4973913 C0.599307692,0.661043478 1.30315385,0.103721739 2.12469231,0.103721739 C2.94623077,0.103721739 3.65084615,0.661043478 3.65084615,1.4973913 C3.65084615,2.3330087 2.94623077,2.94657391 2.12469231,2.94657391 C1.30315385,2.94657391 0.599307692,2.3330087 0.599307692,1.4973913 L0.599307692,1.4973913 Z" id="Fill-23" fill="#FEFEFE" mask="url(#mask-4)"></path>
                            </g>
                        </g>
                    </g>
                </g>
            </g>
        </g>
    </g>
</svg>