<?xml version="1.0" encoding="utf-8"?>
<!-- Generator: Adobe Illustrator 21.0.0, SVG Export Plug-In . SVG Version: 6.00 Build 0)  -->
<svg version="1.0" id="Layer_1" xmlns="http://www.w3.org/2000/svg" xmlns:xlink="http://www.w3.org/1999/xlink" x="0px" y="0px"
	 viewBox="0 0 187.2 33.7" enable-background="new 0 0 187.2 33.7" xml:space="preserve">
<g>
	<polygon fill="#FFFFFF" points="1.1,32.4 36.2,32.4 36.2,1.4 1.1,1.4 	"/>
	<path fill="#2FB457" d="M0,33.7h37.8V0H0V33.7L0,33.7z M24.8,26.5H16V10.6h4.4v13.2h4.2c3,0,4.2-2.1,4.2-7.3c0-5.3-1.5-6.8-4.4-6.8
		h-9.7v16.8h-4.4V9.7H3.8V6.8h21.9c5.3,0,7.7,2.7,7.7,9.5C33.6,25.4,29.8,26.5,24.8,26.5L24.8,26.5z"/>
	<path fill="#FFFFFF" d="M62.6,19.8c-1.1,0.3-2.4,0.6-3.8,0.6c-4.4,0-7.9-2.4-7.9-7.1c0-4.5,3.6-6.7,7.9-6.7c1.5,0,2.3,0.2,3.6,0.3
		v3.6c-0.8-0.3-1.7-0.6-2.6-0.6c-2.1,0-3.8,1.2-3.8,3.3c0,2.4,1.5,3.5,3.6,3.5c1.1,0,1.8-0.2,2.9-0.5L62.6,19.8L62.6,19.8z"/>
	<path fill="#FFFFFF" d="M70.2,16c0,0.9-0.5,1.8-1.5,1.8c-0.8,0-1.1-0.3-1.1-0.9c0-1.1,1.1-1.2,2.1-1.2h0.5V16L70.2,16z M64.3,13.3
		c1.1-0.5,2.3-0.8,3.3-0.8c1.2,0,2.6,0.2,2.6,1.4c-0.5,0-1.2-0.2-1.8-0.2c-2.4,0-5.1,0.6-5.1,3.6c0,2.1,1.8,3,3.6,3
		c1.4,0,2.6-0.6,3.2-1.7h0.2V20h4.4v-6c0-3.6-3.3-4.1-6-4.1c-1.8,0-2.7,0.2-4.2,0.6v2.8H64.3z"/>
	<path fill="#FFFFFF" d="M76.1,10.3h4.5V12h0.2c0.5-1.4,1.8-2,3.2-2c2.6,0,3.5,1.4,3.5,3.3v6.8h-4.8v-5.7c0-0.5,0-1.4-0.8-1.4
		C81,13,81,13.9,81,14.4v5.7h-4.8v-9.8H76.1z"/>
	<path fill="#FFFFFF" d="M95.6,16c0,0.9-0.5,1.8-1.5,1.8c-0.8,0-1.1-0.3-1.1-0.9c0-1.1,1.1-1.2,2.1-1.2h0.5V16L95.6,16z M89.7,13.3
		c1.1-0.5,2.3-0.8,3.3-0.8c1.2,0,2.6,0.2,2.6,1.4c-0.5,0-1.2-0.2-1.8-0.2c-2.4,0-5.1,0.6-5.1,3.6c0,2.1,1.8,3,3.6,3
		c1.4,0,2.6-0.6,3.2-1.7h0.2V20h4.4v-6c0-3.6-3.3-4.1-6-4.1c-1.8,0-2.7,0.2-4.2,0.6v2.8H89.7z"/>
	<path fill="#FFFFFF" d="M108.5,15.1c0,0.9-0.2,2-1.2,2c-1.1,0-1.2-1.1-1.2-2.1c0-1.1,0.2-2,1.2-2C108.3,13,108.5,13.9,108.5,15.1
		L108.5,15.1z M113.2,20.1V5.9h-4.8v5.6l0,0c-0.8-1.1-1.7-1.5-3-1.5c-3,0-4.2,2.3-4.2,5c0,2.9,1.2,5.4,4.4,5.4
		c1.5,0,2.6-0.6,3.2-2.1h0.2v1.8L113.2,20.1L113.2,20.1z"/>
	<path fill="#FFFFFF" d="M121.3,16c0,0.9-0.5,1.8-1.4,1.8c-0.8,0-1.2-0.3-1.2-0.9c0-1.1,1.2-1.2,2.1-1.2h0.5V16L121.3,16z
		 M115.6,13.3c0.9-0.5,2.1-0.8,3.3-0.8c1.2,0,2.4,0.2,2.4,1.4c-0.3,0-1.1-0.2-1.8-0.2c-2.4,0-5.1,0.6-5.1,3.6c0,2.1,1.8,3,3.6,3
		c1.4,0,2.6-0.6,3.3-1.7l0,0V20h4.4v-6c0-3.6-3.3-4.1-6-4.1c-1.8,0-2.7,0.2-4.1,0.6L115.6,13.3L115.6,13.3z"/>
	<polygon fill="#FFFFFF" points="145.5,10.9 141.9,10.9 141.9,20.3 136.8,20.3 136.8,10.9 132.4,10.9 132.4,7 145.5,7 	"/>
	<path fill="#FFFFFF" d="M150.7,10.3v2.3l0,0c0.6-1.4,1.5-2.6,3-2.6c0.3,0,0.6,0.2,0.9,0.2v3.9c-0.3,0-0.8-0.2-1.2-0.2
		c-1.2,0-2.4,1.2-2.4,2.7v3.6h-4.8v-10h4.5V10.3z"/>
	<path fill="#FFFFFF" d="M167,20.3h-4.5v-1.8h-0.2c-0.5,1.5-1.8,2-3.2,2c-2.6,0-3.5-1.4-3.5-3.2v-7h4.8V16c0,0.6,0,1.4,0.8,1.4
		c0.9,0,0.9-0.8,0.9-1.4v-5.7h4.8v10H167z"/>
	<path fill="#FFFFFF" d="M168.4,17.1c0.9,0.5,2.4,0.9,3.6,0.9c0.8,0,1.7-0.2,1.7-0.8c0-1.2-5.4,0-5.4-3.8c0-2.9,3.2-3.5,5.4-3.5
		c1.2,0,2.4,0.3,3.6,0.5v2.7c-1.1-0.3-2-0.6-3.2-0.6c-0.8,0-1.5,0.2-1.5,0.8c0,0.9,5.4-0.2,5.4,3.5c0,2.9-3.2,3.6-5.4,3.6
		c-1.4,0-2.9-0.2-4.2-0.6V17.1L168.4,17.1z"/>
	<path fill="#FFFFFF" d="M180.2,10.3V8l4.7-1.5v3.8h2.3v2.9h-2.3v2.7c0,0.9,0.5,1.4,1.1,1.4c0.5,0,0.9,0,1.2-0.2V20
		c-1.1,0.3-2.1,0.5-3.3,0.5c-2.4,0-3.6-1.2-3.6-3.8v-3.5h-1.8v-2.9H180.2L180.2,10.3z"/>
</g>
</svg>
