<?xml version="1.0" encoding="utf-8"?>
<!-- Generator: Adobe Illustrator 21.0.0, SVG Export Plug-In . SVG Version: 6.00 Build 0)  -->
<svg version="1.1" id="Layer_1" xmlns="http://www.w3.org/2000/svg" xmlns:xlink="http://www.w3.org/1999/xlink" x="0px" y="0px"
	 viewBox="0 0 92 40" style="enable-background:new 0 0 92 40;" xml:space="preserve">
<style type="text/css">
	.st0{fill:#FFFFFF;}
	.st1{filter:url(#Adobe_OpacityMaskFilter);}
	.st2{mask:url(#mask-2);fill:#FFFFFF;}
</style>
<title>WELLS FARGO</title>
<desc>Created with Sketch.</desc>
<g id="Page-1">
	<g id="Choose-Bank" transform="translate(-359.000000, -335.000000)">
		<g id="WELLS-FARGO" transform="translate(359.000000, 335.000000)">
			<path id="Fill-1" class="st0" d="M18.3,29.9c0-1.2-0.2-2.3-0.6-3.2c-0.6-0.8-1.7-0.9-3.4-0.9h-3.8v4.6h1.2c1.8,0,2.1-0.5,2.1-2.8
				h1.5v7.6h-1.5c0-2.6-0.3-3.2-2.1-3.2h-1.2v4c0,1.4,0.2,1.4,1.5,1.4h1.7v1.8H4.4v-1.8h0.9C6.6,37.4,7,37.2,7,36v-9
				c0-1.2-0.5-1.4-1.7-1.4H4.4v-1.7H20v6L18.3,29.9L18.3,29.9z"/>
			<path id="Fill-3" class="st0" d="M44.8,30.2l-3.2,0.2v-4.7h3.2c2.1,0,3.2,0.6,3.2,2.3V28C48,29.6,47,30.2,44.8,30.2L44.8,30.2z
				 M24.1,32.5l2.4-5.8l2.3,5.8H24.1z M53.4,34.9H52c0,1.7,0,2.4-0.9,2.4c-0.5,0-0.9-0.5-0.9-1.4v-0.8c-0.2-2.1-0.6-3.1-3.2-3.8
				c2.9-0.3,4.6-1.7,4.6-3.8c0-2.6-1.8-3.7-5.6-3.7H35.4v1.7h1.2c1.4,0,1.5,0.2,1.5,1.4v9c0,1.1-0.6,1.4-1.5,1.4h-1.1
				c-0.9,0-1.4-0.3-1.8-1.4l-4.9-12.1h-3.7L20,36c-0.5,1.1-0.8,1.4-2,1.4h-0.6v1.8h7.9v-1.8h-1.7c-0.8,0-1.2,0-1.2-0.5
				c0-0.2,0.2-0.5,0.3-0.8l0.8-1.8h5.8L30,36c0.2,0.3,0.2,0.6,0.2,0.8c0,0.6-0.5,0.6-1.2,0.6h-1.7v1.8h17.2v-1.8h-1.4
				c-1.4,0-1.5,0-1.5-1.4v-4h1.5c2.6,0,3.4,0.5,3.5,3.1v1.7c0.2,2.1,1.5,2.8,3.7,2.8c1.8,0,3-1.1,3-4C53.4,35.4,53.4,35.1,53.4,34.9
				L53.4,34.9z"/>
			<g id="Group-7" transform="translate(53.638737, 22.863735)">
				<path id="Fill-5" class="st0" d="M13.3,5.9C12.5,3.6,11,2.6,8.6,2.6s-4.4,2-4.4,6c0,4,1.5,6,4.4,6.1c2,0,3.8-1.1,3.8-2.8V11
					c0-1.1-0.2-1.1-1.7-1.1H9.9V8.2h7.2v1.7h-0.6c-1.1,0-1.2,0-1.2,1.2v5h-1.4L13.1,15c-1.4,1.1-3.4,1.7-5.2,1.7
					c-2.1,0-3.8-0.8-5.2-2.3c-1.5-1.5-2.4-3.5-2.4-5.8c0-2.4,0.8-4.3,2.3-5.8c1.4-1.4,3.4-2,5.5-2c1.7,0,3.7,0.5,4.7,1.7l0.8-1.7
					h1.2v5.2H13.3z"/>
			</g>
			<path id="Fill-8" class="st0" d="M86,31.6c0-5.5-3.7-6.1-5.2-6.1c-2.9,0-5.2,2.1-5.2,6.1c0,4,2.3,6.1,5.2,6.1
				C82.3,37.7,86,36.9,86,31.6 M80.8,39.4c-5,0-9-3.1-9-8c0-4.7,4-7.8,9-7.8c5,0,8.8,3.1,8.8,8C89.6,36.3,85.8,39.4,80.8,39.4"/>
			<path id="Fill-10" class="st0" d="M56.9,13.4c-0.5,0.9-1.5,1.1-3.4,1.1h-3.8V4.2c0-1.2,0.3-1.4,1.8-1.4h1.1V1h-9.1v1.8h0.8
				c1.4,0,2.1,0,2.1,1.4v9c0,1.2-0.6,1.4-2,1.4h-0.8v1.7h15.7v-6.1h-1.8C57.5,11.5,57.3,12.4,56.9,13.4"/>
			<g id="Group-14" transform="translate(0.000000, 0.168700)">
			</g>
			<path id="Fill-12" class="st0" d="M36.9,14.4H32V9.2h1.1c1.8,0,2.1,0.3,2.3,2.9H37V4.5h-1.7c-0.2,2.3-0.5,2.9-2.3,2.9H32V2.8h4.1
				c3,0,4,0.6,4.1,4.1h1.7V1H26.8h-7.5v1.8h1.1c0.9,0,1.2,0.2,1.2,0.6c0,0.3,0,0.6-0.2,1.2l-2.9,7.6h-0.2C17.1,8.5,15.2,4,15.2,4
				c-0.2-0.3-0.2-0.5-0.2-0.6c0-0.5,0.3-0.6,1.1-0.6h1.2V1H9.3v1.8h1.1c1.2,0,1.7,0.6,1.8,1.8l-3,7.6H9C7.6,8.2,5.8,3.9,5.8,3.9
				c-0.2-0.2,0-0.3,0-0.5C5.6,3,6.1,2.8,7,2.8h0.6V1H0v1.8h0.3c1.1,0,2,0.6,2.4,2l4.6,11.5h2.7l3.4-8.4l3.5,8.4h2.7l4.3-11.6
				c0.6-1.4,0.9-1.8,2.3-1.8h0.2c1.4,0,2.1,0,2.1,1.4v9c0,1.2-0.8,1.4-2.1,1.4h-0.9v1.7h16.8v-6.1h-1.8
				C40.2,13.2,39.6,14.4,36.9,14.4"/>
			<path id="Fill-15" class="st0" d="M73.8,10.1c0,1.4-0.2,2.3-0.6,3.2c-0.5,0.9-1.5,1.1-3.4,1.1h-3.7V4.2c0-1.2,0.3-1.4,1.7-1.4
				h1.2V1h-9.3v1.8h1.1c1.2,0,1.8,0,1.8,1.4v9c0,1.2-0.5,1.4-1.8,1.4h-0.3v1.7h15.1v-6.1H73.8z"/>
			<g id="Group-19" transform="translate(76.261688, 0.168700)">
				<g id="Clip-18">
				</g>
				<defs>
					<filter id="Adobe_OpacityMaskFilter" filterUnits="userSpaceOnUse" x="0.6" y="0.5" width="14.3" height="15.9">
						<feColorMatrix  type="matrix" values="1 0 0 0 0  0 1 0 0 0  0 0 1 0 0  0 0 0 1 0"/>
					</filter>
				</defs>
				<mask maskUnits="userSpaceOnUse" x="0.6" y="0.5" width="14.3" height="15.9" id="mask-2">
					<g class="st1">
						<polygon id="path-1" class="st0" points="14.9,16.4 14.9,0.5 0.6,0.5 0.6,16.4 						"/>
					</g>
				</mask>
				<path id="Fill-17" class="st2" d="M14.9,11.7c0,3.5-2.7,4.7-6.7,4.7c-2.4,0-4.9-1.4-5.3-1.8l-0.6,1.5H0.7V10h1.8
					C3,12.9,5,14.1,7.7,14.3c2.4,0.2,4.1-0.5,4.3-2.1c0.3-2-1.8-1.8-3.7-2.1L5.8,9.5C1.9,8.8,0.6,7.7,0.6,5.1C0.4,2.3,3,0.5,6.4,0.5
					c1.7,0,3.8,0.3,5.3,1.5l0.8-1.2h1.4v5.4h-1.7c-0.3-2.9-3.4-3.8-5.8-3.8C4.5,2.5,3.5,3.4,3.5,4.6c0,1.2,1.1,1.4,2.4,1.7l3.2,0.5
					C12.5,7.4,14.9,8,14.9,11.7"/>
			</g>
		</g>
	</g>
</g>
</svg>
